<!-- Generator: Adobe Illustrator 18.1.1, SVG Export Plug-In  -->
<svg version="1.1"
	 xmlns="http://www.w3.org/2000/svg" xmlns:xlink="http://www.w3.org/1999/xlink" xmlns:a="http://ns.adobe.com/AdobeSVGViewerExtensions/3.0/"
	 x="0px" y="0px" width="419.79px" height="172.884px" viewBox="0 0 419.79 172.884" enable-background="new 0 0 419.79 172.884"
	 xml:space="preserve">
<defs>
</defs>
<g>
	<path fill="#374AAA" d="M96.245,172.881c17.711-54.57,35.539-109.103,52.987-163.757c2.223-6.962,5.617-9.306,12.805-9.113
		c20.073,0.54,40.165,0.398,60.25,0.463c24.747,0.081,38.434,10.798,44.42,34.878c9.093,36.579-16.604,78.879-52.676,86.174
		c-6.135,1.241-12.695,1.577-18.911,0.922c-10.335-2.013-10.335-2.013-14.05,10.228c-3.715,12.241-8.56,26.816-12.906,40.204
		C144.191,172.881,120.218,172.881,96.245,172.881z"/>
	<path fill="#374AAA" d="M247.487,172.881c17.711-54.57,35.539-109.103,52.987-163.757c2.223-6.962,5.617-9.306,12.805-9.113
		c20.073,0.54,40.165,0.398,60.25,0.463c24.747,0.081,38.434,10.798,44.42,34.878c9.093,36.579-16.604,78.879-52.676,86.174
		c-6.135,1.241-12.695,1.577-18.911,0.922c-10.335-2.013-10.335-2.013-14.05,10.228s-8.56,26.816-12.906,40.204
		C295.433,172.881,271.46,172.881,247.487,172.881z"/>
	<path fill="#374AAA" d="M54.979,0.474c0,0,49.132,0.006,67.294,0.006c-18.881,58.5-37.261,115.45-55.642,172.4
		c-22.21,0-44.421,0.011-66.631-0.014"/>
</g>
</svg>